<svg xmlns="http://www.w3.org/2000/svg" width="598" height="24" viewBox="0 0 598 24">
    <g id="Group_1" transform="translate(-1129 -766)">
        <g id="Path_1" transform="translate(1129 766)" fill="#fff">
            <path d="M 565 23.5 C 562.740234375 23.5 560.6672973632812 23.25369262695312 558.6627807617188 22.7470760345459 C 556.8785400390625 22.2961540222168 555.1874389648438 21.64692306518555 553.4928588867188 20.76238441467285 C 550.3267211914062 19.10969161987305 547.60986328125 16.84969139099121 544.9823608398438 14.66407680511475 C 539.5662841796875 10.15876960754395 533.9657592773438 5.5 524 5.5 C 513.91455078125 5.5 509.1761474609375 10.24015426635742 504.5937805175781 14.82415390014648 C 502.3417053222656 17.07707786560059 500.2144470214844 19.20507621765137 497.4778442382812 20.82346153259277 C 494.3901672363281 22.64953804016113 491.0607604980469 23.5 487 23.5 C 484.8292236328125 23.5 482.872314453125 23.25438499450684 481.0172424316406 22.74907684326172 C 479.3684692382812 22.29999923706055 477.8360900878906 21.65361595153809 476.3323974609375 20.77300071716309 C 473.5202331542969 19.12607765197754 471.2171630859375 16.8700008392334 468.9899291992188 14.68815422058105 C 464.3786926269531 10.17092323303223 459.6105346679688 5.5 450 5.5 C 440.4276123046875 5.5 435.4613037109375 10.14384651184082 430.6585388183594 14.63476943969727 C 428.3138427734375 16.82723045349121 425.8893127441406 19.09430694580078 422.9642944335938 20.75253868103027 C 421.3995361328125 21.63969230651855 419.8143005371094 22.29092216491699 418.1181640625 22.74346160888672 C 416.2101440429688 23.25253868103027 414.2089233398438 23.5 412 23.5 C 409.7917785644531 23.5 407.8051452636719 23.25269317626953 405.9266052246094 22.74392318725586 C 404.2578430175781 22.29199981689453 402.7110900878906 21.64176940917969 401.1979370117188 20.75600051879883 C 398.3690795898438 19.10007667541504 396.0722961425781 16.83476829528809 393.85107421875 14.64400005340576 C 389.2931518554688 10.14853858947754 384.580078125 5.5 375 5.5 C 365.457763671875 5.5 360.5473022460938 10.1216926574707 355.7985534667969 14.59123039245605 C 353.4598388671875 16.79238510131836 351.0414733886719 19.06853866577148 348.0995483398438 20.73569297790527 C 346.5250854492188 21.6279239654541 344.9253845214844 22.28300094604492 343.2090759277344 22.73838424682617 C 341.2775268554688 23.25084686279297 339.2464599609375 23.5 337 23.5 C 334.7608337402344 23.5 332.7392272949219 23.25246238708496 330.8196105957031 22.74330711364746 C 329.11376953125 22.29076957702637 327.5260620117188 21.63969230651855 325.9658508300781 20.75284576416016 C 323.0498352050781 19.09530830383301 320.657470703125 16.8288459777832 318.3438415527344 14.63700008392334 C 313.602294921875 10.14500045776367 308.69921875 5.5 299 5.5 C 289.30078125 5.5 284.397705078125 10.14500045776367 279.6561584472656 14.63700008392334 C 277.342529296875 16.8288459777832 274.9501647949219 19.09530830383301 272.0341491699219 20.75284576416016 C 270.4739379882812 21.63969230651855 268.88623046875 22.29076957702637 267.1803894042969 22.74330711364746 C 265.2607727050781 23.25246238708496 263.2391662597656 23.5 261 23.5 C 258.7608337402344 23.5 256.7392272949219 23.25246238708496 254.8196105957031 22.74330711364746 C 253.11376953125 22.29076957702637 251.5260772705078 21.63969230651855 249.9658508300781 20.75284576416016 C 247.0498504638672 19.09530830383301 244.6574554443359 16.8288459777832 242.3438415527344 14.63700008392334 C 237.6023101806641 10.14500045776367 232.6992340087891 5.5 223 5.5 C 213.3007659912109 5.5 208.3976898193359 10.14500045776367 203.6561584472656 14.63700008392334 C 201.3425445556641 16.8288459777832 198.9501495361328 19.09530830383301 196.0341491699219 20.75284576416016 C 194.4739227294922 21.63969230651855 192.88623046875 22.29076957702637 191.1803894042969 22.74330711364746 C 189.2607727050781 23.25246238708496 187.2391510009766 23.5 185 23.5 C 182.7535400390625 23.5 180.7224578857422 23.25084686279297 178.7909240722656 22.73838424682617 C 177.0746154785156 22.28300094604492 175.4749298095703 21.6279239654541 173.9004669189453 20.73569297790527 C 170.9585418701172 19.06853866577148 168.5401611328125 16.79238510131836 166.2014617919922 14.59123039245605 C 161.4526977539062 10.1216926574707 156.542236328125 5.5 147 5.5 C 137.5659942626953 5.5 133.1220703125 10.04100036621094 128.8245391845703 14.43253803253174 C 126.6393051147461 16.6655387878418 124.3796157836914 18.9746150970459 121.4716186523438 20.67369270324707 C 119.9130783081055 21.58430862426758 118.2958450317383 22.2533073425293 116.5275421142578 22.71907615661621 C 114.5323104858398 23.24453926086426 112.3971557617188 23.5 110 23.5 C 105.5855407714844 23.5 101.8178482055664 22.64269256591797 98.14284515380859 20.80192375183105 C 94.88922882080078 19.17230796813965 92.09523010253906 16.93646240234375 89.39315032958984 14.77423095703125 C 83.69530487060547 10.21476936340332 77.80345916748047 5.5 67 5.5 C 55.8096923828125 5.5 49.80338287353516 10.46692276000977 43.99492263793945 15.27038478851318 C 38.87723159790039 19.50253868103027 34.04330825805664 23.5 26 23.5 C 22.06569290161133 23.5 18.32600021362305 22.54438400268555 14.88484573364258 20.65976905822754 C 11.94099998474121 19.04761505126953 9.255461692810059 16.78792381286621 6.902769088745117 13.94353866577148 C 2.963563919067383 9.181139945983887 0.7422870397567749 3.62841534614563 0.5187201499938965 0.5 L 597.4694213867188 0.5 C 597.3035888671875 1.933378577232361 596.4691162109375 3.923160314559937 595.123291015625 6.067923069000244 C 593.4232788085938 8.777000427246094 591.0897216796875 11.49361515045166 588.3746948242188 13.92407703399658 C 585.2061767578125 16.76061630249023 581.7366943359375 19.02492332458496 578.062744140625 20.65415382385254 C 573.8045654296875 22.54253768920898 569.4096069335938 23.5 565 23.5 Z"
                  stroke="none"/>
            <path d="M 1.072998046875 1 C 1.255126953125 2.361047744750977 1.771484375 4.085424423217773 2.55047607421875 5.900615692138672 C 3.3629150390625 7.793691635131836 4.8443603515625 10.67053890228271 7.28802490234375 13.62484645843506 C 9.60015869140625 16.42023086547852 12.2369384765625 18.63961601257324 15.12493896484375 20.22123146057129 C 18.49169921875 22.06507682800293 22.150634765625 23 26 23 C 29.5767822265625 23 32.7010498046875 22.2206916809082 35.8323974609375 20.54753875732422 C 38.648681640625 19.04269218444824 41.09075927734375 17.02315330505371 43.67633056640625 14.88507652282715 C 46.55255126953125 12.50653839111328 49.52667236328125 10.04699993133545 53.208740234375 8.17146110534668 C 57.39825439453125 6.037384033203125 61.90948486328125 5 67 5 C 77.97894287109375 5 83.94036865234375 9.770461082458496 89.70553588867188 14.38384628295898 C 95.24276733398438 18.81476974487305 100.4728393554688 23 110 23 C 112.3536071777344 23 114.4470825195312 22.74992370605469 116.4002380371094 22.23553848266602 C 118.1241455078125 21.78153800964355 119.7004699707031 21.12938499450684 121.2193908691406 20.24200057983398 C 124.0693054199219 18.57676887512207 126.3050842285156 16.2922306060791 128.4672241210938 14.0827693939209 C 132.8370666503906 9.617384910583496 137.3556823730469 5 147 5 C 156.7405395507812 5 161.7243957519531 9.690769195556641 166.5441589355469 14.22707653045654 C 168.9679870605469 16.50838470458984 171.2573852539062 18.66323089599609 174.1469116210938 20.30069160461426 C 177.3966979980469 22.14230728149414 180.8453063964844 23 185 23 C 194.1015319824219 23 198.5755310058594 18.76146125793457 203.3122253417969 14.27407646179199 C 208.125 9.714615821838379 213.1015319824219 5 223 5 C 232.8984680175781 5 237.875 9.714615821838379 242.6877746582031 14.27407646179199 C 247.4244689941406 18.76146125793457 251.8984680175781 23 261 23 C 270.1015319824219 23 274.5755310058594 18.76146125793457 279.3122253417969 14.27407646179199 C 284.125 9.714615821838379 289.1015319824219 5 299 5 C 308.8984680175781 5 313.875 9.714615821838379 318.6877746582031 14.27407646179199 C 323.4244689941406 18.76146125793457 327.8984680175781 23 337 23 C 341.1546936035156 23 344.6033020019531 22.14230728149414 347.8530883789062 20.30069160461426 C 350.7426147460938 18.66323089599609 353.031982421875 16.50838470458984 355.4558410644531 14.22707653045654 C 360.275634765625 9.690769195556641 365.2594604492188 5 375 5 C 384.78515625 5 389.5725402832031 9.721769332885742 394.2022094726562 14.28800010681152 C 398.7446899414062 18.76823043823242 403.03515625 23 412 23 C 420.9802856445312 23 425.5155334472656 18.75930786132812 430.3170166015625 14.26953887939453 C 435.190673828125 9.712384223937988 440.2302856445312 5 450 5 C 459.814697265625 5 464.6569213867188 9.743538856506348 469.3397827148438 14.33092308044434 C 473.8906860351562 18.78907775878906 478.1892395019531 23 487 23 C 495.7139282226562 23 499.85546875 18.85700035095215 504.2401428222656 14.47069263458252 C 508.89453125 9.814615249633789 513.7073974609375 5 524 5 C 534.1465454101562 5 539.8176879882812 9.717538833618164 545.3020629882812 14.27969264984131 C 548.029296875 16.54838562011719 550.6052856445312 18.69115447998047 553.7241821289062 20.31915283203125 C 557.2280883789062 22.14815330505371 560.8110961914062 23 565 23 C 569.3392944335938 23 573.6660766601562 22.05699920654297 577.860107421875 20.19707679748535 C 581.4861450195312 18.58907699584961 584.9115600585938 16.35315322875977 588.0411376953125 13.55153846740723 C 591.4278564453125 10.51984596252441 593.5314331054688 7.663999557495117 594.6997680664062 5.802154541015625 C 595.8400268554688 3.98504638671875 596.6010131835938 2.298431396484375 596.880615234375 1 L 1.072998046875 1 M 0 0 L 598 0 C 598 6.124307632446289 584.2217407226562 24 565 24 C 545.7781372070312 24 543.5 6 524 6 C 504.5 6 505.5 24 487 24 C 468.5 24 468.75 6 450 6 C 431.25 6 430.75 24 412 24 C 393.25 24 393.75 6 375 6 C 356.25 6 356 24 337 24 C 318 24 318 6 299 6 C 280 6 280 24 261 24 C 242 24 242 6 223 6 C 204 6 204 24 185 24 C 166 24 165.75 6 147 6 C 128.25 6 130 24 110 24 C 90 24 88 6 67 6 C 46 6 43.2867431640625 24 26 24 C 8.713134765625 24 0 6.032539367675781 0 0 Z"
                  stroke="none" fill="#d3dbda"/>
        </g>
        <rect id="Rectangle_1" width="596" height="1" transform="translate(1130 766)" fill="#fff"/>
    </g>
</svg>
